<?xml version="1.0" encoding="UTF-8" standalone="no"?>
<!-- Created with Inkscape (http://www.inkscape.org/) -->

<svg
   width="193.03571"
   height="169.97792"
   viewBox="0 0 51.07403 44.973325"
   version="1.1"
   id="svg1"
   xml:space="preserve"
   inkscape:version="1.3.2 (091e20ef0f, 2023-11-25, custom)"
   sodipodi:docname="maquette.svg"
   inkscape:export-filename="accueil-connecte.png"
   inkscape:export-xdpi="96"
   inkscape:export-ydpi="96"
   xmlns:inkscape="http://www.inkscape.org/namespaces/inkscape"
   xmlns:sodipodi="http://sodipodi.sourceforge.net/DTD/sodipodi-0.dtd"
   xmlns="http://www.w3.org/2000/svg"
   xmlns:svg="http://www.w3.org/2000/svg"><sodipodi:namedview
     id="namedview1"
     pagecolor="#ffffff"
     bordercolor="#000000"
     borderopacity="0.25"
     inkscape:showpageshadow="2"
     inkscape:pageopacity="0.0"
     inkscape:pagecheckerboard="0"
     inkscape:deskcolor="#d1d1d1"
     inkscape:document-units="px"
     inkscape:zoom="0.46"
     inkscape:cx="520.65217"
     inkscape:cy="323.91304"
     inkscape:window-width="1280"
     inkscape:window-height="749"
     inkscape:window-x="0"
     inkscape:window-y="27"
     inkscape:window-maximized="1"
     inkscape:current-layer="layer1"
     showguides="true"><sodipodi:guide
       position="-30.17223,35.966569"
       orientation="0,-1"
       id="guide1"
       inkscape:locked="false" /><sodipodi:guide
       position="-67.82748,173.50265"
       orientation="0,-1"
       id="guide4"
       inkscape:locked="false" /><sodipodi:guide
       position="71.93324,35.966569"
       orientation="0,-1"
       id="guide5"
       inkscape:locked="false" /><sodipodi:guide
       position="19.35185,193.32771"
       orientation="0,-1"
       id="guide6"
       inkscape:locked="false" /><sodipodi:guide
       position="-56.27104,113.51896"
       orientation="0,-1"
       id="guide7"
       inkscape:locked="false" /></sodipodi:namedview><defs
     id="defs1" /><g
     inkscape:label="Calque 1"
     inkscape:groupmode="layer"
     id="layer1"
     transform="translate(-237.66571,-49.716888)"><g
       id="g1294"
       transform="matrix(1.0046017,0,0,1.0046017,0.94145,8.279115)"><path
         style="fill:#ffffff;fill-opacity:1;stroke:none;stroke-width:2.06375;stroke-dasharray:none;stroke-opacity:1"
         d="m 256.44036,58.416727 0.34759,-6.149507 7.98485,0.344022 3.79934,29.642569 -12.3979,1.016786 z"
         id="path1294"
         sodipodi:nodetypes="cccccc" /><path
         style="fill:#ff0000;stroke-width:0.433469"
         d="m 237.85101,85.970008 c -0.77384,-0.128523 -1.55686,-0.713424 -1.91594,-1.431178 -0.37727,-0.754123 -0.39332,-1.568975 -0.0455,-2.307795 7.17966,-12.544319 14.42468,-25.051317 21.64956,-37.569683 1.4131,-2.448751 1.65448,-2.784696 2.22318,-3.094223 0.81078,-0.441279 1.91263,-0.423395 2.70165,0.04385 6.94168,10.440173 13.07172,21.989164 19.38581,32.92673 2.367,4.100115 4.3692,7.596681 4.44933,7.770146 0.17326,0.375061 0.2366,1.204806 0.12563,1.645528 -0.22597,0.89744 -0.84682,1.577343 -1.75679,1.923906 l -0.33943,0.129274 -23.08107,0.0079 c -13.70208,0.005 -23.20922,-0.01334 -23.39646,-0.04448 z m 24.15642,-5.453778 c 0.45765,-0.21069 0.92042,-0.664953 1.14768,-1.126591 0.175,-0.355496 0.18542,-0.412181 0.18542,-1.008657 0,-0.58299 -0.013,-0.658669 -0.1685,-0.976059 -0.0927,-0.189233 -0.29913,-0.474591 -0.45876,-0.63413 -0.91487,-0.914319 -2.35669,-0.920367 -3.2622,-0.01371 -1.23761,1.239209 -0.72515,3.31838 0.95264,3.865157 0.40103,0.130682 1.205,0.07753 1.60372,-0.10603 z m -0.21519,-7.869036 c 0.36976,-0.166455 0.69818,-0.492089 0.86599,-0.858609 0.11885,-0.259608 0.15811,-0.57822 0.36438,-2.957053 0.12715,-1.466344 0.36099,-4.162766 0.51967,-5.992051 0.36328,-4.18806 0.37523,-4.388541 0.28727,-4.816917 -0.31633,-1.540571 -1.9188,-2.561989 -3.41586,-2.177266 -0.99469,0.255621 -1.74929,0.970777 -2.04234,1.935586 -0.17365,0.571734 -0.19984,0.186537 0.75468,11.101619 0.2047,2.340678 0.24132,2.632387 0.36423,2.900847 0.40565,0.886058 1.41295,1.264059 2.30198,0.863844 z"
         id="path1293"
         sodipodi:nodetypes="cssssssssscsccsssssssssssssssssss" /></g></g></svg>
