<?xml version="1.0" encoding="UTF-8" standalone="no"?>
<!-- Created with Inkscape (http://www.inkscape.org/) -->

<svg
   width="32.224243"
   height="28.196144"
   viewBox="0 0 8.5259977 7.4602298"
   version="1.1"
   id="svg1"
   xml:space="preserve"
   inkscape:version="1.3.2 (091e20ef0f, 2023-11-25, custom)"
   sodipodi:docname="maquette.svg"
   xmlns:inkscape="http://www.inkscape.org/namespaces/inkscape"
   xmlns:sodipodi="http://sodipodi.sourceforge.net/DTD/sodipodi-0.dtd"
   xmlns="http://www.w3.org/2000/svg"
   xmlns:svg="http://www.w3.org/2000/svg"><sodipodi:namedview
     id="namedview1"
     pagecolor="#ffffff"
     bordercolor="#000000"
     borderopacity="0.25"
     inkscape:showpageshadow="2"
     inkscape:pageopacity="0.0"
     inkscape:pagecheckerboard="0"
     inkscape:deskcolor="#d1d1d1"
     inkscape:document-units="px"
     inkscape:zoom="0.46"
     inkscape:cx="520.65217"
     inkscape:cy="497.82609"
     inkscape:window-width="1280"
     inkscape:window-height="749"
     inkscape:window-x="0"
     inkscape:window-y="27"
     inkscape:window-maximized="1"
     inkscape:current-layer="layer1"
     showguides="true"><sodipodi:guide
       position="-48.676686,-4.6262059"
       orientation="0,-1"
       id="guide1"
       inkscape:locked="false" /><sodipodi:guide
       position="-86.331936,132.90987"
       orientation="0,-1"
       id="guide4"
       inkscape:locked="false" /><sodipodi:guide
       position="53.428784,-4.6262059"
       orientation="0,-1"
       id="guide5"
       inkscape:locked="false" /><sodipodi:guide
       position="0.84739398,152.73493"
       orientation="0,-1"
       id="guide6"
       inkscape:locked="false" /><sodipodi:guide
       position="-74.775496,72.926189"
       orientation="0,-1"
       id="guide7"
       inkscape:locked="false" /></sodipodi:namedview><defs
     id="defs1" /><g
     inkscape:label="Calque 1"
     inkscape:groupmode="layer"
     id="layer1"
     transform="translate(-256.17017,-9.1241131)"><path
       d="m 262.46308,10.354717 2.0449,2.044904 c 0.11989,0.119896 0.18818,0.284753 0.18818,0.454607 0,0.169853 -0.0684,0.334712 -0.18818,0.454608 l -2.0449,2.0449 c -0.10651,0.106582 -0.24979,0.164858 -0.39966,0.164858 -0.31139,0 -0.56451,-0.253115 -0.56451,-0.564513 v -1.034105 h -2.13149 c -0.29475,0 -0.53288,-0.23813 -0.53288,-0.532874 v -1.065747 c 0,-0.294747 0.23813,-0.532874 0.53288,-0.532874 h 2.13149 v -1.034108 c 0,-0.311397 0.25312,-0.564513 0.56451,-0.564513 0.14987,0 0.29308,0.05995 0.39966,0.164857 z m -3.62854,-0.164857 h -1.06575 c -0.29474,0 -0.53288,0.238129 -0.53288,0.532874 v 4.262986 c 0,0.294749 0.23814,0.532874 0.53288,0.532874 h 1.06575 c 0.29475,0 0.53288,0.23813 0.53288,0.532875 0,0.294748 -0.23813,0.532874 -0.53288,0.532874 h -1.06575 c -0.88257,0 -1.59862,-0.716048 -1.59862,-1.598623 v -4.262986 c 0,-0.8825717 0.71605,-1.5986209 1.59862,-1.5986209 h 1.06575 c 0.29475,0 0.53288,0.2381278 0.53288,0.5328741 0,0.2947448 -0.23813,0.5328728 -0.53288,0.5328728 z"
       id="path1-0"
       style="stroke-width:0.0166524" /></g></svg>
