<?xml version="1.0" encoding="UTF-8" standalone="no"?>
<!-- Created with Inkscape (http://www.inkscape.org/) -->

<svg
   width="44.043518"
   height="44.086792"
   viewBox="0 0 11.653181 11.66463"
   version="1.1"
   id="svg1"
   xml:space="preserve"
   inkscape:version="1.3.2 (091e20ef0f, 2023-11-25, custom)"
   sodipodi:docname="maquette.svg"
   xmlns:inkscape="http://www.inkscape.org/namespaces/inkscape"
   xmlns:sodipodi="http://sodipodi.sourceforge.net/DTD/sodipodi-0.dtd"
   xmlns="http://www.w3.org/2000/svg"
   xmlns:svg="http://www.w3.org/2000/svg"><sodipodi:namedview
     id="namedview1"
     pagecolor="#ffffff"
     bordercolor="#000000"
     borderopacity="0.25"
     inkscape:showpageshadow="2"
     inkscape:pageopacity="0.0"
     inkscape:pagecheckerboard="0"
     inkscape:deskcolor="#d1d1d1"
     inkscape:document-units="px"
     inkscape:zoom="0.46"
     inkscape:cx="520.65217"
     inkscape:cy="497.82609"
     inkscape:window-width="1280"
     inkscape:window-height="749"
     inkscape:window-x="0"
     inkscape:window-y="27"
     inkscape:window-maximized="1"
     inkscape:current-layer="layer1"
     showguides="true"><sodipodi:guide
       position="-49.882649,126.77561"
       orientation="0,-1"
       id="guide1"
       inkscape:locked="false" /><sodipodi:guide
       position="-87.537899,264.31168"
       orientation="0,-1"
       id="guide4"
       inkscape:locked="false" /><sodipodi:guide
       position="52.222821,126.77561"
       orientation="0,-1"
       id="guide5"
       inkscape:locked="false" /><sodipodi:guide
       position="-0.35856915,284.13674"
       orientation="0,-1"
       id="guide6"
       inkscape:locked="false" /><sodipodi:guide
       position="-75.981459,204.328"
       orientation="0,-1"
       id="guide7"
       inkscape:locked="false" /></sodipodi:namedview><defs
     id="defs1" /><g
     inkscape:label="Calque 1"
     inkscape:groupmode="layer"
     id="layer1"
     transform="translate(-257.37613,-140.52592)"><path
       d="m 267.93684,146.35825 a 4.734115,4.734115 0 1 1 -9.46823,0 4.734115,4.734115 0 1 1 9.46823,0 z m -10.56071,0 a 5.8265978,5.8265978 0 1 0 11.65319,0 5.8265978,5.8265978 0 1 0 -11.65319,0 z m 5.28035,-3.09538 v 3.09538 c 0,0.18208 0.091,0.35277 0.24354,0.4552 l 2.18497,1.45665 c 0.25036,0.1685 0.58948,0.10018 0.75791,-0.15248 0.1685,-0.25263 0.10018,-0.58948 -0.15248,-0.75791 l -1.94144,-1.29277 v -2.80405 c 0,-0.30272 -0.24353,-0.54624 -0.54624,-0.54624 -0.3027,0 -0.54625,0.24352 -0.54625,0.54624 z"
       id="path1-5"
       style="stroke-width:0.0227602" /></g></svg>
