<?xml version="1.0" encoding="UTF-8" standalone="no"?>
<!-- Created with Inkscape (http://www.inkscape.org/) -->

<svg
   width="125.82153"
   height="179.683"
   viewBox="0 0 33.290279 47.541127"
   version="1.1"
   id="svg1"
   xml:space="preserve"
   inkscape:version="1.3.2 (091e20ef0f, 2023-11-25, custom)"
   sodipodi:docname="maquette.svg"
   inkscape:export-filename="accueil-connecte.png"
   inkscape:export-xdpi="96"
   inkscape:export-ydpi="96"
   xmlns:inkscape="http://www.inkscape.org/namespaces/inkscape"
   xmlns:sodipodi="http://sodipodi.sourceforge.net/DTD/sodipodi-0.dtd"
   xmlns="http://www.w3.org/2000/svg"
   xmlns:svg="http://www.w3.org/2000/svg"><sodipodi:namedview
     id="namedview1"
     pagecolor="#ffffff"
     bordercolor="#000000"
     borderopacity="0.25"
     inkscape:showpageshadow="2"
     inkscape:pageopacity="0.0"
     inkscape:pagecheckerboard="0"
     inkscape:deskcolor="#d1d1d1"
     inkscape:document-units="px"
     inkscape:zoom="0.46"
     inkscape:cx="520.65217"
     inkscape:cy="323.91304"
     inkscape:window-width="1280"
     inkscape:window-height="749"
     inkscape:window-x="0"
     inkscape:window-y="27"
     inkscape:window-maximized="1"
     inkscape:current-layer="layer1"
     showguides="true"><sodipodi:guide
       position="71.697475,36.557928"
       orientation="0,-1"
       id="guide1"
       inkscape:locked="false" /><sodipodi:guide
       position="34.042225,174.09401"
       orientation="0,-1"
       id="guide4"
       inkscape:locked="false" /><sodipodi:guide
       position="173.80294,36.557928"
       orientation="0,-1"
       id="guide5"
       inkscape:locked="false" /><sodipodi:guide
       position="121.22155,193.91907"
       orientation="0,-1"
       id="guide6"
       inkscape:locked="false" /><sodipodi:guide
       position="45.598665,114.11032"
       orientation="0,-1"
       id="guide7"
       inkscape:locked="false" /></sodipodi:namedview><defs
     id="defs1"><filter
       style="color-interpolation-filters:sRGB"
       inkscape:label="Drop Shadow"
       id="filter1277"
       x="-0.021041496"
       y="-0.013880766"
       width="1.0763695"
       height="1.0503798"><feFlood
         result="flood"
         in="SourceGraphic"
         flood-opacity="0.498039"
         flood-color="rgb(0,0,0)"
         id="feFlood1276" /><feGaussianBlur
         result="blur"
         in="SourceGraphic"
         stdDeviation="1.534241"
         id="feGaussianBlur1276" /><feOffset
         result="offset"
         in="blur"
         dx="6.000000"
         dy="6.000000"
         id="feOffset1276" /><feComposite
         result="comp1"
         operator="in"
         in="flood"
         in2="offset"
         id="feComposite1276" /><feComposite
         result="comp2"
         operator="over"
         in="SourceGraphic"
         in2="comp1"
         id="feComposite1277" /></filter></defs><g
     inkscape:label="Calque 1"
     inkscape:groupmode="layer"
     id="layer1"
     transform="translate(-135.79601,-50.308247)"><g
       id="g1293"
       transform="matrix(0.76490727,0,0,0.76490727,35.00378,25.545407)"><g
         id="g1292"
         transform="translate(12.745897)"><g
           id="g10326"><rect
             style="fill:#999999;fill-opacity:1;stroke:#977557;stroke-width:2.10684;stroke-dasharray:none;stroke-opacity:1"
             id="rect1286"
             width="197.01738"
             height="290.92987"
             x="101.57631"
             y="-102.68645"
             ry="13.597417"
             transform="matrix(0.20778524,0,0,0.20778524,99.734579,54.71642)" /><rect
             style="fill:#f9f9f9;stroke-width:0.264583;filter:url(#filter1277)"
             id="rect1267"
             width="174.99603"
             height="265.27197"
             x="78.407043"
             y="568.17676"
             transform="matrix(0.20778524,0,0,0.20778524,107.88136,-80.663708)" /><rect
             style="fill:#977557;fill-opacity:1;stroke-width:0.282964"
             id="rect1268"
             width="119.8296"
             height="9.9762173"
             x="108.52552"
             y="550.20837"
             rx="5.1329165"
             ry="0.54471868"
             transform="matrix(0.20778524,0,0,0.20778524,107.88136,-80.663708)" /><path
             id="rect1269"
             style="fill:none;stroke:#977557;stroke-width:4.04192;stroke-linecap:round;stroke-linejoin:round;stroke-dasharray:none"
             d="m 106.71908,555.74767 h 122.22733 c 2.84363,0 5.13291,0.21241 5.13291,0.47625 v 17.16962 c 0,0.26384 -2.28928,0.47625 -5.13291,0.47625 l -48.41012,-1.82078 -20.25504,0.0195 -53.56217,1.80124 c -2.84204,0.0956 -5.13292,-0.21241 -5.13292,-0.47625 v -17.16962 c 0,-0.26384 2.28928,-0.47625 5.13292,-0.47625 z"
             sodipodi:nodetypes="sssssccssss"
             transform="matrix(0.20778524,0,0,0.20778524,107.88136,-80.663708)" /><path
             style="fill:#977557;fill-opacity:1;stroke-width:0.87202;stroke-dasharray:none"
             d="m 146.03531,33.22039 c -6.72396,-0.892059 -22.16087,-1.610893 -24.28161,0.734999 -1.58377,1.751914 -2.45839,4.66629 -2.67165,7.631092 -0.34274,8.269402 0.9944,16.005265 0.19854,24.294322 -0.2328,7.026324 1.20932,20.638421 1.90966,27.65111 1.63099,-0.07769 1.90153,1.2126 1.89254,0.361936 -0.16064,-15.193534 -2.56595,-31.167025 -2.29643,-46.285781 0.0478,-2.679358 0.20721,-4.935023 0.1883,-6.734306 -0.0156,-1.481746 -0.35618,-2.568937 0.79288,-4.067016 0.48131,-0.627503 1.13975,-1.196499 2.20605,-1.669774 3.14833,-1.397392 9.1965,-1.229313 12.34696,-1.345441 1.51134,-0.006 3.77699,1.570771 5.1994,1.05767 z"
             id="path10326"
             sodipodi:nodetypes="cscccssssscsc" /></g></g></g></g></svg>
