<?xml version="1.0" encoding="UTF-8" standalone="no"?>
<!-- Created with Inkscape (http://www.inkscape.org/) -->

<svg
   width="35.07074"
   height="35.418331"
   viewBox="0 0 9.2791332 9.3711001"
   version="1.1"
   id="svg1"
   xml:space="preserve"
   inkscape:version="1.3.2 (091e20ef0f, 2023-11-25, custom)"
   sodipodi:docname="maquette.svg"
   xmlns:inkscape="http://www.inkscape.org/namespaces/inkscape"
   xmlns:sodipodi="http://sodipodi.sourceforge.net/DTD/sodipodi-0.dtd"
   xmlns="http://www.w3.org/2000/svg"
   xmlns:svg="http://www.w3.org/2000/svg"><sodipodi:namedview
     id="namedview1"
     pagecolor="#ffffff"
     bordercolor="#000000"
     borderopacity="0.25"
     inkscape:showpageshadow="2"
     inkscape:pageopacity="0.0"
     inkscape:pagecheckerboard="0"
     inkscape:deskcolor="#d1d1d1"
     inkscape:document-units="px"
     inkscape:zoom="0.46"
     inkscape:cx="520.65217"
     inkscape:cy="497.82609"
     inkscape:window-width="1280"
     inkscape:window-height="749"
     inkscape:window-x="0"
     inkscape:window-y="27"
     inkscape:window-maximized="1"
     inkscape:current-layer="layer1"
     showguides="true"><sodipodi:guide
       position="37.516185,-5.4505649"
       orientation="0,-1"
       id="guide1"
       inkscape:locked="false" /><sodipodi:guide
       position="-0.13906492,132.08551"
       orientation="0,-1"
       id="guide4"
       inkscape:locked="false" /><sodipodi:guide
       position="139.62166,-5.4505649"
       orientation="0,-1"
       id="guide5"
       inkscape:locked="false" /><sodipodi:guide
       position="87.040265,151.91057"
       orientation="0,-1"
       id="guide6"
       inkscape:locked="false" /><sodipodi:guide
       position="11.417375,72.10183"
       orientation="0,-1"
       id="guide7"
       inkscape:locked="false" /></sodipodi:namedview><defs
     id="defs1" /><g
     inkscape:label="Calque 1"
     inkscape:groupmode="layer"
     id="layer1"
     transform="translate(-169.97729,-8.2997541)"><g
       id="g7"
       transform="translate(-30.063836,-0.27987231)"><path
         style="fill:#000000;stroke-width:0.525961"
         d="m 203.52715,17.874036 c -0.0349,-0.06039 -0.10431,-0.391612 -0.15428,-0.736034 -0.0707,-0.486999 -0.17626,-0.675128 -0.47501,-0.846193 -0.35423,-0.202822 -0.43092,-0.200113 -0.98394,0.03476 -0.32987,0.140098 -0.65486,0.220675 -0.72219,0.179061 -0.0674,-0.04161 -0.35376,-0.489331 -0.6365,-0.994927 l -0.51409,-0.919267 0.58243,-0.501012 c 0.76993,-0.6623 0.76993,-1.035528 0,-1.697827 l -0.58243,-0.501012 0.51409,-0.919266 c 0.28274,-0.505597 0.56916,-0.953314 0.6365,-0.9949285 0.0674,-0.041614 0.39232,0.038963 0.72219,0.1790605 0.5526,0.234692 0.62986,0.237457 0.98234,0.03516 0.30342,-0.174145 0.40548,-0.363577 0.49338,-0.9157735 l 0.11082,-0.6962111 h 1.18025 1.18025 l 0.11082,0.6962111 c 0.0879,0.5521965 0.18995,0.7416285 0.49338,0.9157735 0.35248,0.202295 0.42973,0.19953 0.98233,-0.03516 0.32987,-0.140097 0.65486,-0.2206746 0.72219,-0.1790605 0.0674,0.041614 0.35377,0.4893315 0.63651,0.9949285 l 0.51408,0.919266 -0.58243,0.501012 c -0.39488,0.339681 -0.58243,0.61304 -0.58243,0.848913 0,0.235874 0.18755,0.509232 0.58243,0.848914 l 0.58243,0.501012 -0.51408,0.919267 c -0.28274,0.505596 -0.56917,0.953313 -0.63651,0.994927 -0.0673,0.04161 -0.39232,-0.03897 -0.72219,-0.179061 -0.5526,-0.234691 -0.62985,-0.237456 -0.98233,-0.03516 -0.30355,0.174213 -0.40538,0.363356 -0.49302,0.915772 l -0.11046,0.696212 -1.13555,0.04023 c -0.62456,0.02213 -1.1641,-0.0092 -1.19898,-0.06958 z m 2.21118,-3.574912 c 0.38788,-0.387882 0.47314,-0.578472 0.47314,-1.057621 0,-0.479148 -0.0853,-0.669737 -0.47314,-1.05762 -0.38788,-0.387883 -0.57848,-0.473147 -1.05762,-0.473147 -0.47916,0 -0.66974,0.08526 -1.05763,0.473147 -0.38788,0.387883 -0.47314,0.578472 -0.47314,1.05762 0,0.479149 0.0853,0.669739 0.47314,1.057621 0.38789,0.387883 0.57847,0.473147 1.05763,0.473147 0.47914,0 0.66974,-0.08526 1.05762,-0.473147 z"
         id="path1296" /></g></g></svg>
